<mxfile host="Electron" agent="Mozilla/5.0 (X11; Linux x86_64) AppleWebKit/537.36 (KHTML, like Gecko) draw.io/24.7.8 Chrome/128.0.6613.36 Electron/32.0.1 Safari/537.36" version="24.7.8">
  <diagram name="Page-1" id="sVjNLFmWZmZpmfdCnsmX">
    <mxGraphModel dx="1033" dy="1212" grid="1" gridSize="10" guides="1" tooltips="1" connect="1" arrows="1" fold="1" page="1" pageScale="1" pageWidth="1100" pageHeight="850" math="0" shadow="0">
      <root>
        <mxCell id="0" />
        <mxCell id="1" parent="0" />
        <mxCell id="1OjtbBP0HhtFfG1VjbRj-104" value="" style="rounded=0;whiteSpace=wrap;html=1;fillColor=#D5E8D4;" parent="1" vertex="1">
          <mxGeometry x="20" y="400" width="780" height="200" as="geometry" />
        </mxCell>
        <mxCell id="1OjtbBP0HhtFfG1VjbRj-93" value="" style="rounded=0;whiteSpace=wrap;html=1;fillColor=#CDA2BE;" parent="1" vertex="1">
          <mxGeometry x="20" y="600" width="390" height="210" as="geometry" />
        </mxCell>
        <mxCell id="1OjtbBP0HhtFfG1VjbRj-92" value="" style="rounded=0;whiteSpace=wrap;html=1;shadow=0;fillColor=#FFCE9F;" parent="1" vertex="1">
          <mxGeometry x="410" y="600" width="390" height="210" as="geometry" />
        </mxCell>
        <mxCell id="1OjtbBP0HhtFfG1VjbRj-87" value="" style="rounded=0;whiteSpace=wrap;html=1;fillColor=#A9C4EB;" parent="1" vertex="1">
          <mxGeometry x="800" y="120" width="500" height="690" as="geometry" />
        </mxCell>
        <mxCell id="1OjtbBP0HhtFfG1VjbRj-53" value="" style="rounded=0;whiteSpace=wrap;html=1;fillColor=#CDA2BE;" parent="1" vertex="1">
          <mxGeometry x="390" y="120" width="410" height="280" as="geometry" />
        </mxCell>
        <mxCell id="1OjtbBP0HhtFfG1VjbRj-55" value="" style="rounded=0;whiteSpace=wrap;html=1;fillColor=#FFCE9F;" parent="1" vertex="1">
          <mxGeometry x="20" y="120" width="390" height="280" as="geometry" />
        </mxCell>
        <mxCell id="1OjtbBP0HhtFfG1VjbRj-1" value="Client" style="whiteSpace=wrap;html=1;aspect=fixed;" parent="1" vertex="1">
          <mxGeometry x="40" y="450" width="80" height="80" as="geometry" />
        </mxCell>
        <mxCell id="1OjtbBP0HhtFfG1VjbRj-9" value="" style="rounded=0;whiteSpace=wrap;html=1;" parent="1" vertex="1">
          <mxGeometry x="292" y="190" width="240" height="200" as="geometry" />
        </mxCell>
        <mxCell id="1OjtbBP0HhtFfG1VjbRj-10" value="&lt;font style=&quot;font-size: 18px;&quot;&gt;Requests&lt;/font&gt;" style="text;html=1;align=center;verticalAlign=middle;resizable=0;points=[];autosize=1;strokeColor=none;fillColor=none;" parent="1" vertex="1">
          <mxGeometry x="292" y="190" width="100" height="40" as="geometry" />
        </mxCell>
        <mxCell id="1OjtbBP0HhtFfG1VjbRj-11" value="" style="endArrow=none;html=1;rounded=0;entryX=1;entryY=0.25;entryDx=0;entryDy=0;exitX=0;exitY=0.25;exitDx=0;exitDy=0;" parent="1" source="1OjtbBP0HhtFfG1VjbRj-9" target="1OjtbBP0HhtFfG1VjbRj-9" edge="1">
          <mxGeometry width="50" height="50" relative="1" as="geometry">
            <mxPoint x="592" y="790" as="sourcePoint" />
            <mxPoint x="642" y="740" as="targetPoint" />
          </mxGeometry>
        </mxCell>
        <mxCell id="1OjtbBP0HhtFfG1VjbRj-25" style="edgeStyle=orthogonalEdgeStyle;rounded=0;orthogonalLoop=1;jettySize=auto;html=1;exitX=1;exitY=0.25;exitDx=0;exitDy=0;entryX=0.5;entryY=0;entryDx=0;entryDy=0;curved=1;" parent="1" source="1OjtbBP0HhtFfG1VjbRj-16" target="1OjtbBP0HhtFfG1VjbRj-18" edge="1">
          <mxGeometry relative="1" as="geometry" />
        </mxCell>
        <mxCell id="1OjtbBP0HhtFfG1VjbRj-26" value="Request w/ Parameters" style="edgeLabel;html=1;align=center;verticalAlign=middle;resizable=0;points=[];" parent="1OjtbBP0HhtFfG1VjbRj-25" vertex="1" connectable="0">
          <mxGeometry x="0.214" y="-14" relative="1" as="geometry">
            <mxPoint as="offset" />
          </mxGeometry>
        </mxCell>
        <mxCell id="1OjtbBP0HhtFfG1VjbRj-16" value="1.&amp;nbsp; GET CATEGORY&lt;div&gt;2.&amp;nbsp; GET PROFILE&lt;/div&gt;&lt;div&gt;3.&amp;nbsp; GET POST&amp;nbsp;&lt;/div&gt;&lt;div&gt;4.&amp;nbsp; GET NOTIFICATION&lt;/div&gt;&lt;div&gt;5.&amp;nbsp; CREATE POST&lt;/div&gt;&lt;div&gt;6.&amp;nbsp; CREATE ACCOUNT&lt;/div&gt;&lt;div&gt;7.&amp;nbsp; CREATE NOTIFICATION&lt;/div&gt;&lt;div&gt;8.&amp;nbsp; CREATE REPORT&lt;/div&gt;&lt;div&gt;9.&amp;nbsp; CREATE VERIFICATION REQUEST&lt;/div&gt;" style="text;html=1;align=left;verticalAlign=middle;whiteSpace=wrap;rounded=0;" parent="1" vertex="1">
          <mxGeometry x="302" y="280" width="230" height="60" as="geometry" />
        </mxCell>
        <mxCell id="1OjtbBP0HhtFfG1VjbRj-31" style="edgeStyle=orthogonalEdgeStyle;rounded=0;orthogonalLoop=1;jettySize=auto;html=1;exitX=1;exitY=0.5;exitDx=0;exitDy=0;entryX=0;entryY=0.5;entryDx=0;entryDy=0;" parent="1" source="1OjtbBP0HhtFfG1VjbRj-18" target="1OjtbBP0HhtFfG1VjbRj-30" edge="1">
          <mxGeometry relative="1" as="geometry" />
        </mxCell>
        <mxCell id="1OjtbBP0HhtFfG1VjbRj-41" value="Check requested resources" style="edgeLabel;html=1;align=center;verticalAlign=middle;resizable=0;points=[];" parent="1OjtbBP0HhtFfG1VjbRj-31" vertex="1" connectable="0">
          <mxGeometry x="-0.1604" y="2" relative="1" as="geometry">
            <mxPoint x="11" y="2" as="offset" />
          </mxGeometry>
        </mxCell>
        <mxCell id="1OjtbBP0HhtFfG1VjbRj-19" value="" style="rounded=0;whiteSpace=wrap;html=1;" parent="1" vertex="1">
          <mxGeometry x="287" y="610" width="240" height="190" as="geometry" />
        </mxCell>
        <mxCell id="1OjtbBP0HhtFfG1VjbRj-20" value="&lt;font style=&quot;font-size: 18px;&quot;&gt;Responses&lt;/font&gt;" style="text;html=1;align=center;verticalAlign=middle;resizable=0;points=[];autosize=1;strokeColor=none;fillColor=none;" parent="1" vertex="1">
          <mxGeometry x="292" y="610" width="110" height="40" as="geometry" />
        </mxCell>
        <mxCell id="1OjtbBP0HhtFfG1VjbRj-21" value="" style="endArrow=none;html=1;rounded=0;entryX=1;entryY=0.25;entryDx=0;entryDy=0;exitX=0;exitY=0.25;exitDx=0;exitDy=0;" parent="1" source="1OjtbBP0HhtFfG1VjbRj-19" target="1OjtbBP0HhtFfG1VjbRj-19" edge="1">
          <mxGeometry width="50" height="50" relative="1" as="geometry">
            <mxPoint x="592" y="830" as="sourcePoint" />
            <mxPoint x="642" y="780" as="targetPoint" />
          </mxGeometry>
        </mxCell>
        <mxCell id="1OjtbBP0HhtFfG1VjbRj-22" value="1. OK&lt;div&gt;2. MALFORMED&lt;/div&gt;&lt;div&gt;3.&amp;nbsp; DUPLICATE&lt;/div&gt;&lt;div&gt;4. NOT FOUND&lt;/div&gt;&lt;div&gt;5. UNAUTHORIZED&lt;/div&gt;" style="text;html=1;align=left;verticalAlign=middle;whiteSpace=wrap;rounded=0;" parent="1" vertex="1">
          <mxGeometry x="297" y="660" width="210" height="140" as="geometry" />
        </mxCell>
        <mxCell id="1OjtbBP0HhtFfG1VjbRj-23" value="" style="endArrow=classic;html=1;rounded=0;entryX=0;entryY=0.5;entryDx=0;entryDy=0;exitX=0.5;exitY=0;exitDx=0;exitDy=0;edgeStyle=orthogonalEdgeStyle;curved=1;" parent="1" source="1OjtbBP0HhtFfG1VjbRj-1" target="1OjtbBP0HhtFfG1VjbRj-9" edge="1">
          <mxGeometry width="50" height="50" relative="1" as="geometry">
            <mxPoint x="592" y="790" as="sourcePoint" />
            <mxPoint x="642" y="740" as="targetPoint" />
          </mxGeometry>
        </mxCell>
        <mxCell id="1OjtbBP0HhtFfG1VjbRj-24" value="Parameters" style="edgeLabel;html=1;align=center;verticalAlign=middle;resizable=0;points=[];" parent="1OjtbBP0HhtFfG1VjbRj-23" vertex="1" connectable="0">
          <mxGeometry x="-0.2773" y="-11" relative="1" as="geometry">
            <mxPoint as="offset" />
          </mxGeometry>
        </mxCell>
        <mxCell id="1OjtbBP0HhtFfG1VjbRj-38" style="edgeStyle=orthogonalEdgeStyle;rounded=0;orthogonalLoop=1;jettySize=auto;html=1;exitX=0;exitY=0.5;exitDx=0;exitDy=0;exitPerimeter=0;entryX=1;entryY=0.75;entryDx=0;entryDy=0;" parent="1" source="1OjtbBP0HhtFfG1VjbRj-28" target="1OjtbBP0HhtFfG1VjbRj-18" edge="1">
          <mxGeometry relative="1" as="geometry" />
        </mxCell>
        <mxCell id="1OjtbBP0HhtFfG1VjbRj-43" value="Query result" style="edgeLabel;html=1;align=center;verticalAlign=middle;resizable=0;points=[];" parent="1OjtbBP0HhtFfG1VjbRj-38" vertex="1" connectable="0">
          <mxGeometry x="0.0004" y="5" relative="1" as="geometry">
            <mxPoint y="1" as="offset" />
          </mxGeometry>
        </mxCell>
        <mxCell id="1OjtbBP0HhtFfG1VjbRj-28" value="MongoDB" style="shape=cylinder3;whiteSpace=wrap;html=1;boundedLbl=1;backgroundOutline=1;size=15;" parent="1" vertex="1">
          <mxGeometry x="1193.94" y="610" width="60" height="80" as="geometry" />
        </mxCell>
        <mxCell id="1OjtbBP0HhtFfG1VjbRj-39" style="edgeStyle=orthogonalEdgeStyle;rounded=0;orthogonalLoop=1;jettySize=auto;html=1;exitX=0;exitY=0.5;exitDx=0;exitDy=0;exitPerimeter=0;entryX=1;entryY=0.25;entryDx=0;entryDy=0;" parent="1" source="1OjtbBP0HhtFfG1VjbRj-29" target="1OjtbBP0HhtFfG1VjbRj-18" edge="1">
          <mxGeometry relative="1" as="geometry" />
        </mxCell>
        <mxCell id="1OjtbBP0HhtFfG1VjbRj-42" value="Query result" style="edgeLabel;html=1;align=center;verticalAlign=middle;resizable=0;points=[];" parent="1OjtbBP0HhtFfG1VjbRj-39" vertex="1" connectable="0">
          <mxGeometry x="-0.03" y="1" relative="1" as="geometry">
            <mxPoint as="offset" />
          </mxGeometry>
        </mxCell>
        <mxCell id="1OjtbBP0HhtFfG1VjbRj-29" value="SQL" style="shape=cylinder3;whiteSpace=wrap;html=1;boundedLbl=1;backgroundOutline=1;size=15;" parent="1" vertex="1">
          <mxGeometry x="1193.94" y="270" width="60" height="80" as="geometry" />
        </mxCell>
        <mxCell id="1OjtbBP0HhtFfG1VjbRj-30" value="Requested content in SQL or MongoDB?" style="rhombus;whiteSpace=wrap;html=1;" parent="1" vertex="1">
          <mxGeometry x="1173.94" y="440" width="100" height="100" as="geometry" />
        </mxCell>
        <mxCell id="1OjtbBP0HhtFfG1VjbRj-32" style="edgeStyle=orthogonalEdgeStyle;rounded=0;orthogonalLoop=1;jettySize=auto;html=1;exitX=0.5;exitY=0;exitDx=0;exitDy=0;entryX=0.5;entryY=1;entryDx=0;entryDy=0;entryPerimeter=0;" parent="1" source="1OjtbBP0HhtFfG1VjbRj-30" target="1OjtbBP0HhtFfG1VjbRj-29" edge="1">
          <mxGeometry relative="1" as="geometry" />
        </mxCell>
        <mxCell id="1OjtbBP0HhtFfG1VjbRj-35" value="SQL" style="edgeLabel;html=1;align=center;verticalAlign=middle;resizable=0;points=[];" parent="1OjtbBP0HhtFfG1VjbRj-32" vertex="1" connectable="0">
          <mxGeometry x="0.0714" y="1" relative="1" as="geometry">
            <mxPoint x="1" as="offset" />
          </mxGeometry>
        </mxCell>
        <mxCell id="1OjtbBP0HhtFfG1VjbRj-33" style="edgeStyle=orthogonalEdgeStyle;rounded=0;orthogonalLoop=1;jettySize=auto;html=1;exitX=0.5;exitY=1;exitDx=0;exitDy=0;entryX=0.5;entryY=0;entryDx=0;entryDy=0;entryPerimeter=0;" parent="1" source="1OjtbBP0HhtFfG1VjbRj-30" target="1OjtbBP0HhtFfG1VjbRj-28" edge="1">
          <mxGeometry relative="1" as="geometry" />
        </mxCell>
        <mxCell id="1OjtbBP0HhtFfG1VjbRj-34" value="MongoDB" style="edgeLabel;html=1;align=center;verticalAlign=middle;resizable=0;points=[];" parent="1OjtbBP0HhtFfG1VjbRj-33" vertex="1" connectable="0">
          <mxGeometry x="-0.1286" relative="1" as="geometry">
            <mxPoint y="1" as="offset" />
          </mxGeometry>
        </mxCell>
        <mxCell id="1OjtbBP0HhtFfG1VjbRj-60" value="&lt;h3&gt;send(int sockfd, const void buf[],&amp;nbsp;&lt;br&gt;&amp;nbsp; &amp;nbsp; &amp;nbsp; &amp;nbsp; &amp;nbsp; size_t len, int flags);&lt;/h3&gt;" style="text;html=1;align=left;verticalAlign=middle;resizable=0;points=[];autosize=1;strokeColor=none;fillColor=none;" parent="1" vertex="1">
          <mxGeometry x="425" y="110" width="250" height="80" as="geometry" />
        </mxCell>
        <mxCell id="1OjtbBP0HhtFfG1VjbRj-61" value="&lt;h3&gt;memset(void s[], int c, size_t n);&lt;/h3&gt;" style="text;html=1;align=center;verticalAlign=middle;resizable=0;points=[];autosize=1;strokeColor=none;fillColor=none;" parent="1" vertex="1">
          <mxGeometry x="20" y="110" width="240" height="60" as="geometry" />
        </mxCell>
        <mxCell id="1OjtbBP0HhtFfG1VjbRj-62" value="Formation of the message to send to the server is done by&amp;nbsp;&lt;div&gt;serializing the information in the buffer to be sent to the&amp;nbsp;&lt;/div&gt;&lt;div&gt;server with the send(4) function.&amp;nbsp; Setting&lt;/div&gt;&lt;div&gt;of the memory in the buffer is done with&lt;/div&gt;&lt;div&gt;memset(3).&amp;nbsp;&lt;/div&gt;" style="text;html=1;align=left;verticalAlign=middle;resizable=0;points=[];autosize=1;strokeColor=none;fillColor=none;" parent="1" vertex="1">
          <mxGeometry x="30" y="150" width="340" height="90" as="geometry" />
        </mxCell>
        <mxCell id="1OjtbBP0HhtFfG1VjbRj-63" value="The serialized data of the buffer (request) is sent off to the server for a response. This is done with the send(4) function." style="text;html=1;align=left;verticalAlign=middle;whiteSpace=wrap;rounded=0;" parent="1" vertex="1">
          <mxGeometry x="550" y="190" width="130" height="70" as="geometry" />
        </mxCell>
        <mxCell id="1OjtbBP0HhtFfG1VjbRj-64" value="" style="rounded=0;whiteSpace=wrap;html=1;" parent="1" vertex="1">
          <mxGeometry x="20" y="850" width="600" height="90" as="geometry" />
        </mxCell>
        <mxCell id="1OjtbBP0HhtFfG1VjbRj-65" value="&lt;h2&gt;Request Structure&lt;/h2&gt;" style="text;html=1;align=center;verticalAlign=middle;resizable=0;points=[];autosize=1;strokeColor=none;fillColor=none;" parent="1" vertex="1">
          <mxGeometry x="20.000000000000057" y="840" width="180" height="60" as="geometry" />
        </mxCell>
        <mxCell id="1OjtbBP0HhtFfG1VjbRj-66" value="request type, param count, param 1 size, param 1 length, param 1, ..., param n size, param n length, param 2" style="text;html=1;align=center;verticalAlign=middle;resizable=0;points=[];autosize=1;strokeColor=none;fillColor=none;" parent="1" vertex="1">
          <mxGeometry x="20.000000000000057" y="900" width="610" height="30" as="geometry" />
        </mxCell>
        <mxCell id="1OjtbBP0HhtFfG1VjbRj-68" value="" style="endArrow=none;html=1;rounded=0;entryX=1;entryY=0.5;entryDx=0;entryDy=0;exitX=0;exitY=0.5;exitDx=0;exitDy=0;" parent="1" source="1OjtbBP0HhtFfG1VjbRj-64" target="1OjtbBP0HhtFfG1VjbRj-64" edge="1">
          <mxGeometry width="50" height="50" relative="1" as="geometry">
            <mxPoint x="360" y="1210" as="sourcePoint" />
            <mxPoint x="410" y="1160" as="targetPoint" />
          </mxGeometry>
        </mxCell>
        <mxCell id="1OjtbBP0HhtFfG1VjbRj-85" value="" style="rounded=0;whiteSpace=wrap;html=1;" parent="1" vertex="1">
          <mxGeometry x="640" y="850" width="860" height="840" as="geometry" />
        </mxCell>
        <mxCell id="1OjtbBP0HhtFfG1VjbRj-86" value="&lt;h2&gt;Example Request: Get the contents of post with ID #23&lt;/h2&gt;" style="text;html=1;align=center;verticalAlign=middle;resizable=0;points=[];autosize=1;strokeColor=none;fillColor=none;" parent="1" vertex="1">
          <mxGeometry x="680" y="850" width="490" height="60" as="geometry" />
        </mxCell>
        <mxCell id="1OjtbBP0HhtFfG1VjbRj-88" value="&lt;h2&gt;Check for requested resources&lt;/h2&gt;" style="text;html=1;align=center;verticalAlign=middle;resizable=0;points=[];autosize=1;strokeColor=none;fillColor=none;" parent="1" vertex="1">
          <mxGeometry x="795" y="120" width="290" height="60" as="geometry" />
        </mxCell>
        <mxCell id="1OjtbBP0HhtFfG1VjbRj-89" value="The type of response (and subsequent data) the server sends back to&amp;nbsp;&lt;div&gt;the client&amp;nbsp;&lt;span style=&quot;background-color: initial;&quot;&gt;depends on whether the resources asked for in the request&amp;nbsp;&lt;/span&gt;&lt;/div&gt;&lt;div&gt;&lt;span style=&quot;background-color: initial;&quot;&gt;exist.&lt;/span&gt;&lt;/div&gt;" style="text;html=1;align=left;verticalAlign=middle;resizable=0;points=[];autosize=1;strokeColor=none;fillColor=none;" parent="1" vertex="1">
          <mxGeometry x="810" y="165" width="400" height="60" as="geometry" />
        </mxCell>
        <mxCell id="1OjtbBP0HhtFfG1VjbRj-18" value="Server" style="whiteSpace=wrap;html=1;aspect=fixed;" parent="1" vertex="1">
          <mxGeometry x="665" y="452.5" width="80" height="80" as="geometry" />
        </mxCell>
        <mxCell id="1OjtbBP0HhtFfG1VjbRj-95" value="&lt;h3&gt;recv(int sockfd, void buf[], size_t len);&lt;/h3&gt;" style="text;html=1;align=left;verticalAlign=middle;whiteSpace=wrap;rounded=0;" parent="1" vertex="1">
          <mxGeometry x="232" y="410" width="350" height="30" as="geometry" />
        </mxCell>
        <mxCell id="1OjtbBP0HhtFfG1VjbRj-96" value="The server receives the data from the client and then checks the database(s) for the requested resources" style="text;html=1;align=left;verticalAlign=middle;whiteSpace=wrap;rounded=0;" parent="1" vertex="1">
          <mxGeometry x="502" y="450" width="163" height="85" as="geometry" />
        </mxCell>
        <mxCell id="1OjtbBP0HhtFfG1VjbRj-98" value="&lt;h3&gt;send(int sockfd, const void buf[], size_t len, int flags)&lt;/h3&gt;" style="text;html=1;align=left;verticalAlign=middle;whiteSpace=wrap;rounded=0;" parent="1" vertex="1">
          <mxGeometry x="26" y="730" width="244" height="50" as="geometry" />
        </mxCell>
        <mxCell id="1OjtbBP0HhtFfG1VjbRj-99" value="The server sends a response to the client" style="text;html=1;align=left;verticalAlign=middle;whiteSpace=wrap;rounded=0;" parent="1" vertex="1">
          <mxGeometry x="26" y="770" width="333" height="40" as="geometry" />
        </mxCell>
        <mxCell id="1OjtbBP0HhtFfG1VjbRj-102" value="&lt;h3&gt;memset(void s[], int c, size_t n);&lt;/h3&gt;" style="text;html=1;align=center;verticalAlign=middle;resizable=0;points=[];autosize=1;strokeColor=none;fillColor=none;" parent="1" vertex="1">
          <mxGeometry x="540" y="730" width="240" height="60" as="geometry" />
        </mxCell>
        <mxCell id="1OjtbBP0HhtFfG1VjbRj-103" value="The server sets the data of the reply buffer in the standard manner described earlier" style="text;html=1;align=left;verticalAlign=middle;whiteSpace=wrap;rounded=0;" parent="1" vertex="1">
          <mxGeometry x="550" y="760" width="245" height="50" as="geometry" />
        </mxCell>
        <mxCell id="1OjtbBP0HhtFfG1VjbRj-105" value="The client receives the data from the server. If the response is OK then the requested resources are available.&amp;nbsp;" style="text;html=1;align=left;verticalAlign=middle;whiteSpace=wrap;rounded=0;" parent="1" vertex="1">
          <mxGeometry x="139" y="450" width="163" height="85" as="geometry" />
        </mxCell>
        <mxCell id="1OjtbBP0HhtFfG1VjbRj-107" style="edgeStyle=orthogonalEdgeStyle;rounded=0;orthogonalLoop=1;jettySize=auto;html=1;exitX=0.5;exitY=1;exitDx=0;exitDy=0;entryX=0.996;entryY=0.615;entryDx=0;entryDy=0;entryPerimeter=0;curved=1;" parent="1" source="1OjtbBP0HhtFfG1VjbRj-18" target="1OjtbBP0HhtFfG1VjbRj-19" edge="1">
          <mxGeometry relative="1" as="geometry" />
        </mxCell>
        <mxCell id="1OjtbBP0HhtFfG1VjbRj-109" value="" style="endArrow=classic;html=1;rounded=0;entryX=0.5;entryY=1;entryDx=0;entryDy=0;exitX=-0.008;exitY=0.608;exitDx=0;exitDy=0;exitPerimeter=0;edgeStyle=orthogonalEdgeStyle;curved=1;" parent="1" source="1OjtbBP0HhtFfG1VjbRj-19" target="1OjtbBP0HhtFfG1VjbRj-1" edge="1">
          <mxGeometry width="50" height="50" relative="1" as="geometry">
            <mxPoint x="690" y="560" as="sourcePoint" />
            <mxPoint x="740" y="510" as="targetPoint" />
          </mxGeometry>
        </mxCell>
        <mxCell id="1OjtbBP0HhtFfG1VjbRj-110" value="Response (maybe w/ resources)" style="edgeLabel;html=1;align=center;verticalAlign=middle;resizable=0;points=[];" parent="1OjtbBP0HhtFfG1VjbRj-109" vertex="1" connectable="0">
          <mxGeometry x="-0.2354" y="-45" relative="1" as="geometry">
            <mxPoint x="-1" as="offset" />
          </mxGeometry>
        </mxCell>
        <mxCell id="v55B5Anf6y4wa15yqD8W-4" value="0" style="whiteSpace=wrap;html=1;aspect=fixed;" vertex="1" parent="1">
          <mxGeometry x="845.53" y="990" width="50" height="50" as="geometry" />
        </mxCell>
        <mxCell id="v55B5Anf6y4wa15yqD8W-5" value="1" style="whiteSpace=wrap;html=1;aspect=fixed;" vertex="1" parent="1">
          <mxGeometry x="895.53" y="990" width="50" height="50" as="geometry" />
        </mxCell>
        <mxCell id="v55B5Anf6y4wa15yqD8W-7" value="8" style="whiteSpace=wrap;html=1;aspect=fixed;" vertex="1" parent="1">
          <mxGeometry x="945.53" y="990" width="50" height="50" as="geometry" />
        </mxCell>
        <mxCell id="v55B5Anf6y4wa15yqD8W-19" style="edgeStyle=orthogonalEdgeStyle;rounded=0;orthogonalLoop=1;jettySize=auto;html=1;exitX=0.5;exitY=1;exitDx=0;exitDy=0;" edge="1" parent="1" source="v55B5Anf6y4wa15yqD8W-8" target="v55B5Anf6y4wa15yqD8W-14">
          <mxGeometry relative="1" as="geometry" />
        </mxCell>
        <mxCell id="v55B5Anf6y4wa15yqD8W-8" value="1" style="whiteSpace=wrap;html=1;aspect=fixed;" vertex="1" parent="1">
          <mxGeometry x="995.53" y="990" width="50" height="50" as="geometry" />
        </mxCell>
        <mxCell id="v55B5Anf6y4wa15yqD8W-20" style="edgeStyle=orthogonalEdgeStyle;rounded=0;orthogonalLoop=1;jettySize=auto;html=1;exitX=0.5;exitY=1;exitDx=0;exitDy=0;" edge="1" parent="1" source="v55B5Anf6y4wa15yqD8W-9" target="v55B5Anf6y4wa15yqD8W-15">
          <mxGeometry relative="1" as="geometry" />
        </mxCell>
        <mxCell id="v55B5Anf6y4wa15yqD8W-9" value="23" style="whiteSpace=wrap;html=1;aspect=fixed;" vertex="1" parent="1">
          <mxGeometry x="1045.53" y="990" width="50" height="50" as="geometry" />
        </mxCell>
        <mxCell id="v55B5Anf6y4wa15yqD8W-10" value="GET CATEGORY BY ID&lt;div&gt;request id&lt;/div&gt;" style="text;html=1;align=center;verticalAlign=middle;resizable=0;points=[];autosize=1;strokeColor=none;fillColor=none;" vertex="1" parent="1">
          <mxGeometry x="690.53" y="1100" width="150" height="40" as="geometry" />
        </mxCell>
        <mxCell id="v55B5Anf6y4wa15yqD8W-11" value="This request is being&lt;div&gt;sent with 1 parameter&lt;/div&gt;" style="text;html=1;align=center;verticalAlign=middle;resizable=0;points=[];autosize=1;strokeColor=none;fillColor=none;" vertex="1" parent="1">
          <mxGeometry x="800.53" y="1140" width="140" height="40" as="geometry" />
        </mxCell>
        <mxCell id="v55B5Anf6y4wa15yqD8W-13" value="The size of each element&lt;div&gt;in parameter 1 is 8 bytes&lt;/div&gt;" style="text;html=1;align=center;verticalAlign=middle;resizable=0;points=[];autosize=1;strokeColor=none;fillColor=none;" vertex="1" parent="1">
          <mxGeometry x="890.53" y="1190" width="160" height="40" as="geometry" />
        </mxCell>
        <mxCell id="v55B5Anf6y4wa15yqD8W-14" value="There is only 1 element in&lt;div&gt;parameter 1&lt;/div&gt;" style="text;html=1;align=center;verticalAlign=middle;resizable=0;points=[];autosize=1;strokeColor=none;fillColor=none;" vertex="1" parent="1">
          <mxGeometry x="1025.53" y="1140" width="160" height="40" as="geometry" />
        </mxCell>
        <mxCell id="v55B5Anf6y4wa15yqD8W-15" value="Parameter 1 is the value 23&lt;div&gt;(ID of the requested post)&lt;/div&gt;" style="text;html=1;align=center;verticalAlign=middle;resizable=0;points=[];autosize=1;strokeColor=none;fillColor=none;" vertex="1" parent="1">
          <mxGeometry x="1144.47" y="1100" width="170" height="40" as="geometry" />
        </mxCell>
        <mxCell id="v55B5Anf6y4wa15yqD8W-16" style="edgeStyle=orthogonalEdgeStyle;rounded=0;orthogonalLoop=1;jettySize=auto;html=1;exitX=0.5;exitY=1;exitDx=0;exitDy=0;entryX=0.488;entryY=0.125;entryDx=0;entryDy=0;entryPerimeter=0;" edge="1" parent="1" source="v55B5Anf6y4wa15yqD8W-4" target="v55B5Anf6y4wa15yqD8W-10">
          <mxGeometry relative="1" as="geometry" />
        </mxCell>
        <mxCell id="v55B5Anf6y4wa15yqD8W-17" style="edgeStyle=orthogonalEdgeStyle;rounded=0;orthogonalLoop=1;jettySize=auto;html=1;exitX=0.5;exitY=1;exitDx=0;exitDy=0;entryX=0.514;entryY=0.063;entryDx=0;entryDy=0;entryPerimeter=0;" edge="1" parent="1" source="v55B5Anf6y4wa15yqD8W-5" target="v55B5Anf6y4wa15yqD8W-11">
          <mxGeometry relative="1" as="geometry" />
        </mxCell>
        <mxCell id="v55B5Anf6y4wa15yqD8W-18" style="edgeStyle=orthogonalEdgeStyle;rounded=0;orthogonalLoop=1;jettySize=auto;html=1;exitX=0.5;exitY=1;exitDx=0;exitDy=0;entryX=0.5;entryY=0.113;entryDx=0;entryDy=0;entryPerimeter=0;" edge="1" parent="1" source="v55B5Anf6y4wa15yqD8W-7" target="v55B5Anf6y4wa15yqD8W-13">
          <mxGeometry relative="1" as="geometry" />
        </mxCell>
        <mxCell id="v55B5Anf6y4wa15yqD8W-21" value="&lt;h2&gt;Human-readable view&lt;/h2&gt;" style="text;html=1;align=center;verticalAlign=middle;resizable=0;points=[];autosize=1;strokeColor=none;fillColor=none;" vertex="1" parent="1">
          <mxGeometry x="680" y="900" width="210" height="60" as="geometry" />
        </mxCell>
        <mxCell id="v55B5Anf6y4wa15yqD8W-22" value="&lt;h2&gt;Byte view&lt;/h2&gt;" style="text;html=1;align=left;verticalAlign=middle;resizable=0;points=[];autosize=1;strokeColor=none;fillColor=none;" vertex="1" parent="1">
          <mxGeometry x="690.53" y="1250" width="110" height="60" as="geometry" />
        </mxCell>
        <mxCell id="v55B5Anf6y4wa15yqD8W-45" style="edgeStyle=orthogonalEdgeStyle;rounded=0;orthogonalLoop=1;jettySize=auto;html=1;exitX=0.5;exitY=1;exitDx=0;exitDy=0;" edge="1" parent="1" source="v55B5Anf6y4wa15yqD8W-34" target="v55B5Anf6y4wa15yqD8W-42">
          <mxGeometry relative="1" as="geometry" />
        </mxCell>
        <mxCell id="v55B5Anf6y4wa15yqD8W-34" value="1" style="whiteSpace=wrap;html=1;aspect=fixed;" vertex="1" parent="1">
          <mxGeometry x="740.86" y="1330" width="50" height="50" as="geometry" />
        </mxCell>
        <mxCell id="v55B5Anf6y4wa15yqD8W-48" style="edgeStyle=orthogonalEdgeStyle;rounded=0;orthogonalLoop=1;jettySize=auto;html=1;exitX=0.5;exitY=1;exitDx=0;exitDy=0;entryX=0.5;entryY=0;entryDx=0;entryDy=0;" edge="1" parent="1" source="v55B5Anf6y4wa15yqD8W-35" target="v55B5Anf6y4wa15yqD8W-44">
          <mxGeometry relative="1" as="geometry" />
        </mxCell>
        <mxCell id="v55B5Anf6y4wa15yqD8W-35" value="1" style="whiteSpace=wrap;html=1;aspect=fixed;" vertex="1" parent="1">
          <mxGeometry x="790.86" y="1330" width="50" height="50" as="geometry" />
        </mxCell>
        <mxCell id="v55B5Anf6y4wa15yqD8W-55" style="edgeStyle=orthogonalEdgeStyle;rounded=0;orthogonalLoop=1;jettySize=auto;html=1;exitX=0.5;exitY=1;exitDx=0;exitDy=0;" edge="1" parent="1" source="v55B5Anf6y4wa15yqD8W-37" target="v55B5Anf6y4wa15yqD8W-54">
          <mxGeometry relative="1" as="geometry" />
        </mxCell>
        <mxCell id="v55B5Anf6y4wa15yqD8W-37" value="2" style="rounded=0;whiteSpace=wrap;html=1;" vertex="1" parent="1">
          <mxGeometry x="890.86" y="1330" width="99.47" height="50" as="geometry" />
        </mxCell>
        <mxCell id="v55B5Anf6y4wa15yqD8W-39" value="8" style="rounded=0;whiteSpace=wrap;html=1;" vertex="1" parent="1">
          <mxGeometry x="990.3299999999999" y="1330" width="399.07" height="50" as="geometry" />
        </mxCell>
        <mxCell id="v55B5Anf6y4wa15yqD8W-42" value="Only 1 byte is required to represent the number of request IDs.&amp;nbsp;" style="text;html=1;align=left;verticalAlign=middle;whiteSpace=wrap;rounded=0;" vertex="1" parent="1">
          <mxGeometry x="655.53" y="1495" width="139.47" height="30" as="geometry" />
        </mxCell>
        <mxCell id="v55B5Anf6y4wa15yqD8W-44" value="A request should not have more than 256 parameters." style="text;html=1;align=left;verticalAlign=middle;whiteSpace=wrap;rounded=0;" vertex="1" parent="1">
          <mxGeometry x="746.13" y="1560" width="139.47" height="30" as="geometry" />
        </mxCell>
        <mxCell id="v55B5Anf6y4wa15yqD8W-51" value="Only numbers (ASCII values are numbers)&amp;nbsp;&lt;div&gt;should really be required. No numeric type&amp;nbsp;&lt;/div&gt;&lt;div&gt;uses more than 256 bytes of space.&lt;/div&gt;" style="text;html=1;align=left;verticalAlign=middle;resizable=0;points=[];autosize=1;strokeColor=none;fillColor=none;" vertex="1" parent="1">
          <mxGeometry x="785.53" y="1610" width="250" height="60" as="geometry" />
        </mxCell>
        <mxCell id="v55B5Anf6y4wa15yqD8W-52" value="1" style="whiteSpace=wrap;html=1;aspect=fixed;" vertex="1" parent="1">
          <mxGeometry x="840.86" y="1330" width="50" height="50" as="geometry" />
        </mxCell>
        <mxCell id="v55B5Anf6y4wa15yqD8W-53" style="edgeStyle=orthogonalEdgeStyle;rounded=0;orthogonalLoop=1;jettySize=auto;html=1;exitX=0.5;exitY=1;exitDx=0;exitDy=0;entryX=0.497;entryY=-0.008;entryDx=0;entryDy=0;entryPerimeter=0;" edge="1" parent="1" source="v55B5Anf6y4wa15yqD8W-52" target="v55B5Anf6y4wa15yqD8W-51">
          <mxGeometry relative="1" as="geometry" />
        </mxCell>
        <mxCell id="v55B5Anf6y4wa15yqD8W-54" value="The length of a&amp;nbsp;&lt;div&gt;parameter may&amp;nbsp;&lt;div&gt;have to be&amp;nbsp;&lt;/div&gt;&lt;div&gt;longer than 256&amp;nbsp;&lt;/div&gt;&lt;div&gt;bytes, for&amp;nbsp;&lt;span style=&quot;background-color: initial;&quot;&gt;example&amp;nbsp;&lt;/span&gt;&lt;/div&gt;&lt;div&gt;&lt;span style=&quot;background-color: initial;&quot;&gt;when a request&lt;/span&gt;&lt;/div&gt;&lt;div&gt;&lt;span style=&quot;background-color: initial;&quot;&gt;includes&amp;nbsp;&lt;/span&gt;&lt;span style=&quot;background-color: initial;&quot;&gt;a string for&lt;/span&gt;&lt;/div&gt;&lt;div&gt;&lt;span style=&quot;background-color: initial;&quot;&gt;a CREATE POST&amp;nbsp;&lt;/span&gt;&lt;/div&gt;&lt;div&gt;&lt;span style=&quot;background-color: initial;&quot;&gt;request.&lt;/span&gt;&lt;/div&gt;&lt;/div&gt;" style="text;html=1;align=left;verticalAlign=middle;resizable=0;points=[];autosize=1;strokeColor=none;fillColor=none;" vertex="1" parent="1">
          <mxGeometry x="950" y="1450" width="130" height="140" as="geometry" />
        </mxCell>
        <mxCell id="v55B5Anf6y4wa15yqD8W-56" value="The value 23 is stored as an unsigned 64-bit integer (8 bytes). This is&lt;div&gt;is because there may be billions of posts. Likewise gigantic number&lt;/div&gt;&lt;div&gt;representation is necessary&lt;/div&gt;" style="text;html=1;align=left;verticalAlign=middle;resizable=0;points=[];autosize=1;strokeColor=none;fillColor=none;" vertex="1" parent="1">
          <mxGeometry x="1080" y="1465" width="390" height="60" as="geometry" />
        </mxCell>
        <mxCell id="v55B5Anf6y4wa15yqD8W-57" style="edgeStyle=orthogonalEdgeStyle;rounded=0;orthogonalLoop=1;jettySize=auto;html=1;exitX=0.5;exitY=1;exitDx=0;exitDy=0;entryX=0.448;entryY=0.017;entryDx=0;entryDy=0;entryPerimeter=0;" edge="1" parent="1" source="v55B5Anf6y4wa15yqD8W-39" target="v55B5Anf6y4wa15yqD8W-56">
          <mxGeometry relative="1" as="geometry" />
        </mxCell>
      </root>
    </mxGraphModel>
  </diagram>
</mxfile>
